PathFileType	4	(X/Y/Z)	E:\Qualisys_Data\Carbon_Farble_Plate\Data\Amateur_Runner\S2\T1\S2T1V12_c3d.trc
DataRate	CameraRate	NumFrames	NumMarkers	Units	OrigDataRate	OrigDataStartFrame	OrigNumFrames
200.000000	200.000000	4	39	mm	200.000000	240	320
Frame#	Time	LSHO			RSHO			LICST			RICST			LASIS			LHEEL			RASIS			LTROC			RTROC			SACR			LTH1			LSK4			LTH2			LTH3			RHM5			LSK2			LTH4			RTH1			LTOE			RTH2			RTH3			RTH4			LLEP			RLEP			LSK1			LSK3			RSK1			LHM5			RSK2			LFT1			RSK3			RSK4			LLME			RLME			RTOE			RHEEL			RFT1			RFT2			LFT2			
		X1	Y1	Z1	X2	Y2	Z2	X3	Y3	Z3	X4	Y4	Z4	X5	Y5	Z5	X6	Y6	Z6	X7	Y7	Z7	X8	Y8	Z8	X9	Y9	Z9	X10	Y10	Z10	X11	Y11	Z11	X12	Y12	Z12	X13	Y13	Z13	X14	Y14	Z14	X15	Y15	Z15	X16	Y16	Z16	X17	Y17	Z17	X18	Y18	Z18	X19	Y19	Z19	X20	Y20	Z20	X21	Y21	Z21	X22	Y22	Z22	X23	Y23	Z23	X24	Y24	Z24	X25	Y25	Z25	X26	Y26	Z26	X27	Y27	Z27	X28	Y28	Z28	X29	Y29	Z29	X30	Y30	Z30	X31	Y31	Z31	X32	Y32	Z32	X33	Y33	Z33	X34	Y34	Z34	X35	Y35	Z35	X36	Y36	Z36	X37	Y37	Z37	X38	Y38	Z38	X39	Y39	Z39	

241	1.2	1537.197509765625	1437.247924804688	-425.0621643066406	1615.005981445312	1427.005493164062	-124.8976821899414	1527.032836914062	980.6873779296876	-396.15771484375	1553.682373046875	976.7804565429688	-96.68878936767578	1587.931518554688	934.2437744140624	-377.6829528808594	1600.36767578125	77.32616424560547	-233.7493133544922	1608.455810546875	926.722412109375	-120.2001342773438	1468.700561523438	852.3228149414062	-396.0803527832031	1453.212158203125	887.7742309570312	-84.18463134765625	1446.156372070312	1020.3857421875	-238.5072326660156	1660.486938476562	642.157958984375	-383.5387878417969	1612.801391601562	253.014404296875	-335.842529296875	1582.854858398438	616.7051391601562	-383.0526123046875	1690.291870117188	548.550048828125	-349.3543701171875	962.3318481445312	300.7366638183594	-79.96028137207031	1614.5244140625	350.3097839355469	-356.8644409179688	1609.340209960938	524.2922973632812	-353.6355285644531	1517.289306640625	607.3444213867188	-64.58527374267578	1837.0009765625	96.98785400390624	-260.1577453613281	1443.135864257812	628.3126831054688	-67.71569061279297	1490.873657226562	509.6593322753906	-69.22492980957031	1414.471069335938	533.5771484375	-79.14347839355469	1658.89990234375	488.9847106933594	-348.4903869628906	1426.160278320312	497.7268371582031	-66.81942749023438	1691.998168945312	351.4225769042969	-343.8116149902344	1691.6962890625	253.0258331298828	-326.8586730957031	1328.901123046875	429.4405212402344	-63.44079208374023	1787.397094726562	64.23790740966797	-321.4139404296875	1313.488525390625	509.1675415039062	-68.5943603515625	1615.526977539062	52.84787368774414	-205.5147552490234	1229.1591796875	409.156005859375	-75.98078155517578	1217.465209960938	487.3509826660156	-84.63844299316406	1653.87158203125	85.31258392333984	-294.2057189941406	1043.0517578125	414.1858215332031	-118.3795394897461	982.1687622070312	230.0163116455078	-125.0729751586914	1048.0673828125	456.8253784179688	-187.3141784667969	1029.115234375	440.7977905273438	-219.5138702392578	1021.442749023438	468.5241088867188	-167.4256439208984	1603.025390625	47.50747680664062	-258.0601501464844
242	1.205	1554.15478515625	1431.00341796875	-426.5302734375	1630.507690429688	1421.704956054688	-125.1160202026367	1542.207397460938	975.578857421875	-396.0755920410156	1569.111450195312	970.5947265625	-96.48731231689452	1603.254638671875	929.4669799804688	-378.0998229980469	1603.063354492188	75.87877655029297	-233.1334838867188	1624.18798828125	921.3214721679688	-120.1234359741211	1484.319458007812	847.1190795898438	-395.3869323730469	1469.448364257812	881.2350463867188	-83.3831558227539	1461.26220703125	1015.2919921875	-238.4481506347656	1678.269775390625	638.6285400390625	-377.9735107421875	1623.81591796875	249.8278045654297	-334.3875122070312	1600.479125976562	612.86767578125	-382.8650817871094	1707.9208984375	543.8895874023438	-347.2209777832031	983.5191650390624	306.1180419921875	-79.50643157958984	1628.1806640625	347.0654296875	-355.1656799316406	1626.372802734375	520.156494140625	-352.5741577148438	1537.723388671875	601.750244140625	-63.10126113891602	1841.70361328125	88.10037231445312	-253.4652404785156	1463.192504882812	621.0112915039062	-66.70840454101562	1513.1201171875	503.3914184570312	-67.45933532714844	1436.34423828125	526.16259765625	-78.00961303710938	1675.24072265625	484.5775451660156	-347.6408081054688	1449.257202148438	490.6215515136719	-65.07431030273438	1705.857666015625	346.2788696289062	-341.816162109375	1702.17724609375	247.4371795654297	-325.0295104980469	1351.102172851562	424.8470764160156	-62.4700813293457	1792.380493164062	60.46216201782227	-319.4515380859375	1337.630493164062	504.8539733886719	-67.27810668945312	1617.167236328125	51.09372711181641	-205.6751861572266	1251.07958984375	407.2169494628906	-75.15814971923828	1241.326293945312	485.7835083007812	-83.97203063964844	1657.599487304688	83.50801849365234	-293.5111389160156	1065.964233398438	417.90771484375	-118.4615173339844	1002.330688476562	234.9725036621094	-123.6905975341797	1071.829833984375	460.0623474121094	-188.0744018554688	1052.835205078125	443.6810913085938	-220.4905700683594	1045.356811523438	471.9863586425781	-168.4872436523438	1604.968627929688	46.49778747558594	-258.49462890625
243	1.21	1571.326049804688	1424.890014648438	-427.7987976074219	1645.7509765625	1416.410522460938	-125.2433319091797	1557.467163085938	970.1822509765624	-396.4171447753906	1584.683471679688	964.7421875	-96.31529235839844	1618.329711914062	924.8452758789062	-378.2453002929688	1605.065063476562	75.93206787109375	-233.3129425048828	1639.8408203125	915.8368530273438	-120.2381439208984	1499.417358398438	842.0868530273438	-395.09765625	1485.823852539062	874.0576171875	-83.15088653564453	1476.580810546875	1009.608459472656	-238.7003936767578	1695.2822265625	635.0379638671875	-375.1345825195312	1633.834228515625	248.8948516845703	-333.7488708496094	1617.346069335938	608.2559204101562	-382.6277465820312	1724.70458984375	539.7657470703125	-346.3555603027344	1005.520385742188	311.3240356445312	-78.97544860839844	1642.886352539062	346.0687561035156	-354.15185546875	1643.441650390625	515.6383666992188	-352.0958557128906	1558.522216796875	595.443359375	-61.90481948852539	1843.630004882812	82.74272155761719	-247.9490051269531	1483.596435546875	613.7625122070312	-65.8598403930664	1535.453369140625	497.1569213867188	-65.77948760986328	1458.520874023438	518.5606689453125	-76.24724578857422	1692.131469726562	480.390380859375	-346.1778259277344	1472.561767578125	482.8058471679688	-63.60185623168945	1720.2578125	341.7359313964844	-339.894775390625	1712.519775390625	243.1433715820312	-323.464599609375	1373.881225585938	420.2962951660156	-61.38308715820312	1794.338012695312	60.42873764038086	-314.0256652832031	1361.99560546875	500.6519470214844	-66.09270477294922	1617.79638671875	50.38901901245117	-205.5778656005859	1273.558349609375	405.493896484375	-74.82357788085938	1265.9423828125	483.8536987304688	-83.17737579345703	1660.229125976562	82.23533630371094	-292.5832824707031	1089.332763671875	421.2830810546875	-118.8957748413086	1023.640869140625	239.35107421875	-122.5381393432617	1096.1435546875	463.1029357910156	-189.3054809570312	1077.027465820312	446.4347534179688	-221.2160491943359	1069.941162109375	475.4668273925781	-169.4047393798828	1606.337768554688	46.73589324951172	-258.7355346679688
244	1.215	1588.502075195312	1418.7392578125	-429.8063659667969	1661.130615234375	1410.988525390625	-125.366325378418	1572.517333984375	965.4199829101562	-396.8461303710938	1600.233276367188	959.1123657226562	-95.53523254394533	1633.1708984375	920.1551513671876	-378.4515380859375	1606.904541015625	77.17599487304688	-233.1395263671875	1655.26513671875	910.126708984375	-120.3306350708008	1515.09130859375	837.13525390625	-394.7578430175781	1502.279174804688	866.7640991210938	-82.44964599609375	1491.668090820312	1003.616943359375	-238.7830963134766	1712.57861328125	630.8058471679688	-373.8135375976562	1644.629272460938	249.6178436279297	-335.3690490722656	1633.460205078125	603.6953125	-382.3350830078125	1741.301879882812	535.8372802734375	-345.1883239746094	1028.322998046875	315.1605224609375	-79.0160903930664	1657.896850585938	346.3644714355469	-353.8464660644531	1660.407104492188	511.7260437011719	-351.8857421875	1579.357055664062	589.8663330078125	-60.86153793334961	1845.006591796875	78.38613891601562	-247.4977874755859	1504.025512695312	606.5718383789062	-65.38267517089844	1558.2919921875	491.4151916503906	-64.67474365234375	1480.665893554688	510.6440734863281	-74.72877502441406	1710.200805664062	476.8755493164062	-344.6689147949219	1495.928955078125	476.5886840820312	-61.01953125	1734.476440429688	338.4503173828125	-337.6773681640625	1722.740966796875	240.2722625732422	-321.8510131835938	1396.882202148438	415.9055786132812	-60.67612838745117	1795.538696289062	60.40542984008789	-310.6233520507812	1387.289794921875	496.3975830078125	-64.71542358398438	1618.424560546875	50.82469940185547	-205.3397827148438	1296.527709960938	402.8531799316406	-74.50556945800781	1290.502685546875	481.7311096191406	-82.64241027832031	1662.415893554688	82.71923065185547	-291.9318542480469	1113.324096679688	424.9095153808594	-118.6732788085938	1045.686157226562	242.9618682861328	-121.9759750366211	1120.73291015625	465.3331604003906	-189.9507598876953	1101.624877929688	449.0734252929688	-222.0341796875	1094.505493164062	478.2151489257812	-170.2142181396484	1606.843505859375	47.71296310424805	-258.2543029785156
